<svg width="123" height="120" viewBox="0 0 123 120" fill="none" xmlns="http://www.w3.org/2000/svg">
  <g clip-path="url(#clip0_0_1)">
    <rect x="1.5" width="120" height="120" rx="60" fill="#65558F"/>
  </g>
  <path d="M36 81V75H42V54C42 49.85 43.25 46.175 45.75 43.975C48.25 41.725 51.5 40.6 55.5 40.6V34.5C55.5 33.25 55.925 32.2 56.775 31.35C57.675 30.45 58.75 30 60 30C61.25 30 62.3 30.45 63.15 31.35C64.05 32.2 64.5 33.25 64.5 34.5V40.6C68.5 40.6 71.75 41.725 74.25 43.975C76.75 46.175 78 49.85 78 54V75H84V81H36ZM60 90C58.35 90 57.025 89.425 56.025 88.275C55.075 87.025 54.6 85.675 54.6 84H66.6C66.6 85.675 66.15 87.025 65.25 88.275C64.325 89.425 62.95 90 60 90ZM48 75H72V54C72 50.7 70.825 47.875 68.475 45.525C66.125 43.175 63.3 42 60 42C56.7 42 53.875 43.175 51.525 45.525C49.175 47.875 48 50.7 48 54V75Z" fill="white"/>
  <defs>
    <clipPath id="clip0_0_1">
      <rect x="1.5" width="120" height="120" rx="60" fill="white"/>
    </clipPath>
  </defs>
</svg>
