<svg width="123" height="120" viewBox="0 0 123 120" fill="none" xmlns="http://www.w3.org/2000/svg">
  <rect x="1.5" width="120" height="120" rx="60" fill="#65558F"/>
  <path d="M78.5 72.5C76.25 72.5 74.05 72.1 71.95 71.35C70.5 70.85 68.85 71.25 67.95 72.2L62.3 78.4C54.75 74.2 48.8 68.35 44.6 60.8L50.8 55.15C51.75 54.25 52.15 52.6 51.65 51.15C50.9 49.05 50.5 46.85 50.5 44.6C50.5 43.25 49.35 42.1 48 42.1H38.25C36.9 42.1 35.75 43.25 35.75 44.6C35.75 64.3 51.2 79.75 70.9 79.75C72.25 79.75 73.4 78.6 73.4 77.25V67.5C73.4 66.15 72.25 65 70.9 65H70.85L70.85 65L78.5 72.5Z" fill="white"/>
</svg>
