<svg width="145" height="22" viewBox="0 0 145 22" fill="none" xmlns="http://www.w3.org/2000/svg">
<rect x="56" y="1" width="21" height="21" rx="10.5" fill="white"/>
<path d="M70.3245 7.05147V6.55147V7.05147ZM71 7.66665L70.5 7.66665V7.66665H71ZM61 7.66665L60.5 7.66665L61 7.66665ZM61.6755 7.05147L61.6755 7.55147L61.6755 7.05147ZM70.3245 16.989V16.489V16.989ZM71 16.3738H71.5H71ZM63.3412 15.4715H63.8412H63.3412ZM62.6649 14.8563L62.6649 15.3563H62.6654L62.6649 14.8563ZM61.2601 15.0959L60.9227 15.4649H60.9227L61.2601 15.0959ZM64.1886 16.989V17.489V16.989ZM62.7258 16.4338L62.3892 16.8035L62.7258 16.4338ZM61.339 9.70588C61.0628 9.70588 60.839 9.92974 60.839 10.2059C60.839 10.482 61.0628 10.7059 61.339 10.7059V9.70588ZM70.9153 10.7059C71.1914 10.7059 71.4153 10.482 71.4153 10.2059C71.4153 9.92974 71.1914 9.70588 70.9153 9.70588V10.7059ZM63.5986 8.32614C63.5986 8.60228 63.8225 8.82614 64.0986 8.82614C64.3747 8.82614 64.5986 8.60228 64.5986 8.32614H63.5986ZM64.5986 6C64.5986 5.72386 64.3747 5.5 64.0986 5.5C63.8225 5.5 63.5986 5.72386 63.5986 6H64.5986ZM67.6664 8.32614C67.6664 8.60228 67.8903 8.82614 68.1664 8.82614C68.4425 8.82614 68.6664 8.60228 68.6664 8.32614H67.6664ZM68.6664 6C68.6664 5.72386 68.4425 5.5 68.1664 5.5C67.8903 5.5 67.6664 5.72386 67.6664 6H68.6664ZM64.0508 11.8088C63.7747 11.8088 63.5508 12.0327 63.5508 12.3088C63.5508 12.585 63.7747 12.8088 64.0508 12.8088V11.8088ZM64.1356 12.8088C64.4117 12.8088 64.6356 12.585 64.6356 12.3088C64.6356 12.0327 64.4117 11.8088 64.1356 11.8088V12.8088ZM64.0508 13.5882C63.7747 13.5882 63.5508 13.8121 63.5508 14.0882C63.5508 14.3644 63.7747 14.5882 64.0508 14.5882V13.5882ZM64.1356 14.5882C64.4117 14.5882 64.6356 14.3644 64.6356 14.0882C64.6356 13.8121 64.4117 13.5882 64.1356 13.5882V14.5882ZM66.0847 11.8088C65.8086 11.8088 65.5847 12.0327 65.5847 12.3088C65.5847 12.585 65.8086 12.8088 66.0847 12.8088V11.8088ZM66.1695 12.8088C66.4456 12.8088 66.6695 12.585 66.6695 12.3088C66.6695 12.0327 66.4456 11.8088 66.1695 11.8088V12.8088ZM66.0847 13.5882C65.8086 13.5882 65.5847 13.8121 65.5847 14.0882C65.5847 14.3644 65.8086 14.5882 66.0847 14.5882V13.5882ZM66.1695 14.5882C66.4456 14.5882 66.6695 14.3644 66.6695 14.0882C66.6695 13.8121 66.4456 13.5882 66.1695 13.5882V14.5882ZM68.1186 11.8088C67.8425 11.8088 67.6186 12.0327 67.6186 12.3088C67.6186 12.585 67.8425 12.8088 68.1186 12.8088V11.8088ZM68.2034 12.8088C68.4795 12.8088 68.7034 12.585 68.7034 12.3088C68.7034 12.0327 68.4795 11.8088 68.2034 11.8088V12.8088ZM68.1186 13.5882C67.8425 13.5882 67.6186 13.8121 67.6186 14.0882C67.6186 14.3644 67.8425 14.5882 68.1186 14.5882V13.5882ZM68.2034 14.5882C68.4795 14.5882 68.7034 14.3644 68.7034 14.0882C68.7034 13.8121 68.4795 13.5882 68.2034 13.5882V14.5882ZM70.3245 16.489H64.1886V17.489H70.3245V16.489ZM61.5 14.5129V7.66665L60.5 7.66665V14.5129H61.5ZM61.6755 7.55147L70.3245 7.55147V6.55147L61.6755 6.55147L61.6755 7.55147ZM70.5 7.66665V16.3738H71.5V7.66665L70.5 7.66665ZM70.3245 7.55147C70.3877 7.55147 70.4362 7.57466 70.4655 7.60133C70.494 7.6273 70.5 7.65087 70.5 7.66665L71.5 7.66665C71.5 7.00777 70.9287 6.55147 70.3245 6.55147V7.55147ZM61.5 7.66665C61.5 7.65087 61.506 7.6273 61.5345 7.60133C61.5638 7.57465 61.6123 7.55147 61.6755 7.55147L61.6755 6.55147C61.0713 6.55147 60.5 7.00776 60.5 7.66665L61.5 7.66665ZM63.0624 16.064C62.5857 15.6301 61.9489 15.0481 61.5975 14.7269L60.9227 15.4649C61.2741 15.7862 61.9117 16.3688 62.3892 16.8035L63.0624 16.064ZM70.3245 17.489C70.9287 17.489 71.5 17.0327 71.5 16.3738H70.5C70.5 16.3896 70.494 16.4132 70.4655 16.4391C70.4362 16.4658 70.3877 16.489 70.3245 16.489V17.489ZM62.8412 15.4715L62.8412 17H63.8412V15.4715H62.8412ZM61 15.3563L62.6649 15.3563L62.6649 14.3563H61L61 15.3563ZM63.8412 15.4715C63.8412 14.812 63.269 14.3556 62.6644 14.3563L62.6654 15.3563C62.7287 15.3562 62.7772 15.3794 62.8066 15.4061C62.8352 15.4321 62.8412 15.4557 62.8412 15.4715H63.8412ZM60.5 14.5129C60.5 14.8768 60.6546 15.2197 60.9227 15.4649L61.5975 14.7269C61.532 14.667 61.5 14.5899 61.5 14.5129H60.5ZM64.1886 16.489C64.032 16.489 63.8123 16.4452 63.5857 16.3594C63.3582 16.2733 63.1708 16.1627 63.0624 16.064L62.3892 16.8035C62.6195 17.0132 62.9294 17.1802 63.2317 17.2946C63.5348 17.4094 63.8772 17.489 64.1886 17.489V16.489ZM61.339 10.7059H70.9153V9.70588H61.339V10.7059ZM64.5986 8.32614V6H63.5986V8.32614H64.5986ZM68.6664 8.32614V6H67.6664V8.32614H68.6664ZM64.0508 12.8088H64.1356V11.8088H64.0508V12.8088ZM64.0508 14.5882H64.1356V13.5882H64.0508V14.5882ZM66.0847 12.8088H66.1695V11.8088H66.0847V12.8088ZM66.0847 14.5882H66.1695V13.5882H66.0847V14.5882ZM68.1186 12.8088H68.2034V11.8088H68.1186V12.8088ZM68.1186 14.5882H68.2034V13.5882H68.1186V14.5882Z" fill="#2260FF"/>
<rect x="124" y="1" width="21" height="21" rx="10.5" fill="white"/>
<path fill-rule="evenodd" clip-rule="evenodd" d="M129.805 7.85786C130.879 6.71405 132.621 6.71405 133.695 7.85786L134.5 8.71573L135.305 7.85786C136.379 6.71405 138.121 6.71405 139.195 7.85786C140.268 9.00168 140.268 10.8562 139.195 12L134.5 17L129.805 12C128.732 10.8562 128.732 9.00168 129.805 7.85786Z" stroke="#2260FF" stroke-linecap="round"/>
<rect x="101" y="1" width="21" height="21" rx="10.5" fill="white"/>
<path d="M111.143 16H111.261M111.321 13.9231V13.1049C111.321 12.3402 112 11.7527 112.693 11.3877C113.476 10.9757 114 10.2219 114 9.36014C114 8.05667 112.801 7 111.321 7C110.329 7 109.463 7.47544 109 8.1819" stroke="#2260FF" stroke-linecap="round"/>
<rect x="79" y="1" width="21" height="21" rx="10.5" fill="white"/>
<path d="M89 15.5L89 9.5" stroke="#2260FF" stroke-linecap="round"/>
<path d="M89 7.5L89 7" stroke="#2260FF" stroke-linecap="round"/>
<rect width="46" height="22" rx="11" fill="#2260FF"/>
<path d="M12.1455 6.1H13.4355V16H12.1455V6.1ZM18.939 9.6625C19.344 9.6625 19.7365 9.7475 20.1165 9.9175C20.5015 10.0875 20.8165 10.3575 21.0615 10.7275C21.3115 11.0925 21.4365 11.57 21.4365 12.16V16H20.1165V12.415C20.1165 11.805 19.974 11.3625 19.689 11.0875C19.404 10.8075 19.0365 10.6675 18.5865 10.6675C18.2915 10.6675 18.0065 10.7525 17.7315 10.9225C17.4615 11.0875 17.239 11.3175 17.064 11.6125C16.889 11.9025 16.8015 12.2325 16.8015 12.6025V16H15.4965V9.8425H16.8015V10.9375C16.8465 10.7675 16.969 10.5825 17.169 10.3825C17.369 10.1825 17.624 10.0125 17.934 9.8725C18.244 9.7325 18.579 9.6625 18.939 9.6625ZM22.5655 9.8425H23.8255V8.095C23.8255 7.47 23.933 6.9675 24.148 6.5875C24.368 6.2075 24.6455 5.9325 24.9805 5.7625C25.3205 5.5875 25.668 5.5 26.023 5.5C26.453 5.5 26.783 5.56 27.013 5.68C27.248 5.8 27.388 5.88 27.433 5.92L26.908 6.9175C26.883 6.8875 26.8055 6.8325 26.6755 6.7525C26.5455 6.6725 26.368 6.6325 26.143 6.6325C25.978 6.6325 25.818 6.6725 25.663 6.7525C25.508 6.8325 25.378 6.9875 25.273 7.2175C25.168 7.4475 25.1155 7.79 25.1155 8.245V9.8425H26.8705V10.96H25.1155V16H23.8255V10.96H22.5655V9.8425ZM30.9002 16.18C30.2652 16.18 29.7002 16.0375 29.2052 15.7525C28.7152 15.4675 28.3302 15.0825 28.0502 14.5975C27.7702 14.1075 27.6302 13.555 27.6302 12.94C27.6302 12.325 27.7702 11.77 28.0502 11.275C28.3302 10.78 28.7152 10.3875 29.2052 10.0975C29.7002 9.8075 30.2652 9.6625 30.9002 9.6625C31.5302 9.6625 32.0877 9.8075 32.5727 10.0975C33.0627 10.3875 33.4452 10.78 33.7202 11.275C33.9952 11.77 34.1327 12.325 34.1327 12.94C34.1327 13.555 33.9952 14.1075 33.7202 14.5975C33.4452 15.0825 33.0627 15.4675 32.5727 15.7525C32.0877 16.0375 31.5302 16.18 30.9002 16.18ZM30.9002 15.0625C31.3002 15.0625 31.6477 14.97 31.9427 14.785C32.2427 14.6 32.4752 14.3475 32.6402 14.0275C32.8052 13.7025 32.8877 13.3375 32.8877 12.9325C32.8877 12.5275 32.8052 12.1625 32.6402 11.8375C32.4752 11.5125 32.2427 11.255 31.9427 11.065C31.6477 10.875 31.3002 10.78 30.9002 10.78C30.4952 10.78 30.1427 10.875 29.8427 11.065C29.5427 11.255 29.3077 11.5125 29.1377 11.8375C28.9727 12.1625 28.8902 12.5275 28.8902 12.9325C28.8902 13.3375 28.9727 13.7025 29.1377 14.0275C29.3077 14.3475 29.5427 14.6 29.8427 14.785C30.1427 14.97 30.4952 15.0625 30.9002 15.0625Z" fill="white"/>
</svg>
