<svg width="276" height="200" viewBox="0 0 276 80" fill="none" xmlns="http://www.w3.org/2000/svg">
<path d="M80 40C80 62.0914 62.0914 80 40 80C17.9086 80 0 62.0914 0 40C0 17.9086 17.9086 0 40 0C62.0914 0 80 17.9086 80 40Z" fill="#CAD6FF"/>
<circle cx="138" cy="40" r="40" fill="#CAD6FF"/>
<circle cx="236" cy="40" r="40" fill="#CAD6FF"/>
<path d="M231.524 39.9384C232.66 43.7128 239.846 54.6584 248.576 56.923M245.166 61.1692C238.346 59.0462 231.45 53.8244 227.432 44.8923C222.656 34.2769 233.57 30.0306 237.664 39.2308C239.238 42.7692 241.756 46.6614 249.258 50.5538C256.762 54.446 261.536 42.7694 254.716 39.2308C244.784 34.0788 242.438 19.2739 228.114 22.2462C207.992 26.4216 212.426 54.0924 222.658 61.877M252.67 44.8922C240.392 40.646 240.688 22.9884 227.432 28.6152C212.426 34.9844 223.34 60.4616 236.982 64M239.028 18C246.53 18.7077 248.576 26.4924 256.762 33.5692" stroke="#2260FF" stroke-width="4" stroke-linecap="round" stroke-linejoin="round"/>
<path d="M54.1956 26.761C51.156 23.961 47.2454 22.2922 43.1206 22.035C38.996 21.7776 34.9084 22.9476 31.5444 25.348C28.1804 27.7486 25.7448 31.2338 24.6468 35.218C23.5489 39.2022 23.8554 43.4428 25.5148 47.2278C27.1744 51.013 30.0856 54.1112 33.76 56.0032C37.4342 57.895 41.6476 58.465 45.6924 57.6172C49.7372 56.7694 53.3672 54.5556 55.9726 51.3476C58.578 48.1396 60 44.1328 60 40L42 40" stroke="#2260FF" stroke-width="4" stroke-linecap="round" stroke-linejoin="round"/>
<circle cx="138" cy="40" r="24" fill="#CAD6FF" stroke="#2260FF" stroke-width="4"/>
<path d="M146 30H144C141 30 138 31.6 138 38C138 44.4 138 57.6666 138 64M146 44H130" stroke="#2260FF" stroke-width="4" stroke-linecap="round" stroke-linejoin="round"/>
</svg>

