<svg width="161" height="251" viewBox="0 0 161 251" fill="none" xmlns="http://www.w3.org/2000/svg">
<rect x="52.6462" width="47.7692" height="138" rx="23.8846" fill="#2260FF"/>
<rect x="145" y="45.646" width="46.7077" height="138" rx="23.3538" transform="rotate(90 145 45.646)" fill="#2260FF"/>
<path d="M49.9181 44.5075C62.2097 46.2592 70.1825 55.2229 75.7944 64.8629C78.9003 70.2893 81.5195 76.0707 85.5892 80.6973C88.6097 84.1502 92.148 87.0488 96.0328 89.6178C98.6262 91.3179 101.373 92.8293 104.815 93.3185C102.933 93.5923 101.1 93.498 99.3884 93.1788C94.2918 92.1286 89.9262 89.8425 85.9413 87.0848C81.9767 84.3141 78.7416 80.5667 76.2289 76.3863C73.7729 72.3308 71.705 67.9266 69.2968 63.9109C64.4839 55.8576 58.6425 48.7319 49.9181 44.5075Z" fill="white"/>
<path d="M79.1007 64.2936C79.1007 64.2936 64.5208 51.4635 71.3092 34.244C76.9049 20.05 84.8759 17.3227 84.4767 6.03955C90.2516 11.1407 100.735 24.4133 95.8917 40.1236C91.1538 55.494 79.1007 64.2936 79.1007 64.2936Z" fill="white"/>
<path d="M84.4767 6.03955C91.4748 14.5774 91.5776 24.9928 88.1327 35.3419C85.0663 45.0675 79.6403 53.6101 78.3816 63.78C78.2313 62.8979 77.9368 61.7371 77.9166 60.8277C77.8438 59.2473 77.9651 57.6109 78.1891 56.0371C79.2868 48.5499 82.6089 41.3907 84.8702 34.3436C88.2834 24.1618 88.6617 15.8135 84.4767 6.03955Z" fill="#2260FF"/>
<path d="M74.5926 75.83C74.5926 75.83 59.8262 52.7869 43.0797 60.1279C29.2757 66.1791 27.0559 71.3004 12.5592 67.7444C17.8083 73.2352 29.5404 85.5249 47.3063 83.6619C63.1307 82.0018 74.5926 75.83 74.5926 75.83Z" fill="white"/>
<path d="M12.3332 67.9561C19.8334 72.1433 28.6984 72.9605 36.8826 70.9978C38.3204 70.7259 40.0762 70.1172 41.483 69.7138C52.3926 65.8694 66.2082 67.3543 74.5815 75.8445C65.103 71.3193 53.8381 70.7079 43.9385 73.8898C43.4603 74.0397 42.4812 74.3265 41.9965 74.4617C41.6166 74.5684 39.7638 75.0946 39.4227 75.1801C38.2162 75.3949 36.9303 75.6637 35.7175 75.8218C34.9843 75.8589 33.2086 76.0519 32.4914 76.0536C31.9568 76.0415 30.8659 76.0209 30.3299 76.0075C23.6958 75.6861 16.6959 73.1049 12.3332 67.9561Z" fill="#2260FF"/>
<path d="M31.6376 243.466L31.7396 243.484V250H30.2456V242.08H32.3096L35.8616 248.584L35.7596 248.608V242.08H37.2536V250H35.1776L31.6376 243.466ZM40.1346 247.432C40.1346 247.872 40.2226 248.224 40.3986 248.488C40.5746 248.748 40.8586 248.878 41.2506 248.878C41.6466 248.878 41.9326 248.748 42.1086 248.488C42.2846 248.224 42.3726 247.872 42.3726 247.432V245.074H43.8726V247.606C43.8726 248.114 43.7706 248.56 43.5666 248.944C43.3626 249.324 43.0646 249.62 42.6726 249.832C42.2846 250.04 41.8106 250.144 41.2506 250.144C40.6946 250.144 40.2206 250.04 39.8286 249.832C39.4406 249.62 39.1446 249.324 38.9406 248.944C38.7366 248.56 38.6346 248.114 38.6346 247.606V245.074H40.1346V247.432ZM46.5267 250H45.0027V245.074H46.5267V245.872H46.4967C46.5247 245.776 46.6007 245.654 46.7247 245.506C46.8527 245.358 47.0287 245.226 47.2527 245.11C47.4767 244.99 47.7467 244.93 48.0627 244.93C48.2907 244.93 48.4967 244.964 48.6807 245.032C48.8687 245.096 49.0027 245.16 49.0827 245.224L48.4827 246.472C48.4307 246.408 48.3327 246.342 48.1887 246.274C48.0487 246.206 47.8727 246.172 47.6607 246.172C47.4087 246.172 47.1987 246.242 47.0307 246.382C46.8627 246.518 46.7367 246.686 46.6527 246.886C46.5687 247.082 46.5267 247.266 46.5267 247.438V250ZM49.3488 245.074H50.2368V243.052H51.7488V245.074H52.9128V246.34H51.7488V248.122C51.7488 248.358 51.7868 248.542 51.8628 248.674C51.9388 248.802 52.0588 248.866 52.2228 248.866C52.3468 248.866 52.4488 248.842 52.5288 248.794C52.6088 248.742 52.6568 248.706 52.6728 248.686L53.2128 249.778C53.1888 249.802 53.1108 249.844 52.9788 249.904C52.8508 249.964 52.6848 250.018 52.4808 250.066C52.2808 250.118 52.0548 250.144 51.8028 250.144C51.3508 250.144 50.9768 250.014 50.6808 249.754C50.3848 249.49 50.2368 249.082 50.2368 248.53V246.34H49.3488V245.074ZM55.4158 247.432C55.4158 247.872 55.5038 248.224 55.6798 248.488C55.8558 248.748 56.1398 248.878 56.5318 248.878C56.9278 248.878 57.2138 248.748 57.3898 248.488C57.5658 248.224 57.6538 247.872 57.6538 247.432V245.074H59.1538V247.606C59.1538 248.114 59.0518 248.56 58.8478 248.944C58.6438 249.324 58.3458 249.62 57.9538 249.832C57.5658 250.04 57.0918 250.144 56.5318 250.144C55.9758 250.144 55.5018 250.04 55.1098 249.832C54.7218 249.62 54.4258 249.324 54.2218 248.944C54.0178 248.56 53.9158 248.114 53.9158 247.606V245.074H55.4158V247.432ZM61.808 250H60.284V245.074H61.808V245.872H61.778C61.806 245.776 61.882 245.654 62.006 245.506C62.134 245.358 62.31 245.226 62.534 245.11C62.758 244.99 63.028 244.93 63.344 244.93C63.572 244.93 63.778 244.964 63.962 245.032C64.15 245.096 64.284 245.16 64.364 245.224L63.764 246.472C63.712 246.408 63.614 246.342 63.47 246.274C63.33 246.206 63.154 246.172 62.942 246.172C62.69 246.172 62.48 246.242 62.312 246.382C62.144 246.518 62.018 246.686 61.934 246.886C61.85 247.082 61.808 247.266 61.808 247.438V250ZM65.9497 247.876C65.9617 248.1 66.0217 248.3 66.1297 248.476C66.2377 248.652 66.3937 248.79 66.5977 248.89C66.8057 248.99 67.0537 249.04 67.3417 249.04C67.6017 249.04 67.8297 249.008 68.0257 248.944C68.2257 248.88 68.3937 248.802 68.5297 248.71C68.6697 248.614 68.7737 248.522 68.8417 248.434L69.4717 249.37C69.3597 249.51 69.2097 249.64 69.0217 249.76C68.8377 249.876 68.6017 249.968 68.3137 250.036C68.0297 250.108 67.6737 250.144 67.2457 250.144C66.7057 250.144 66.2317 250.038 65.8237 249.826C65.4157 249.614 65.0977 249.308 64.8697 248.908C64.6417 248.508 64.5277 248.032 64.5277 247.48C64.5277 247 64.6297 246.568 64.8337 246.184C65.0377 245.796 65.3337 245.49 65.7217 245.266C66.1137 245.042 66.5837 244.93 67.1317 244.93C67.6477 244.93 68.0937 245.03 68.4697 245.23C68.8497 245.426 69.1437 245.714 69.3517 246.094C69.5597 246.474 69.6637 246.938 69.6637 247.486C69.6637 247.518 69.6617 247.584 69.6577 247.684C69.6577 247.78 69.6537 247.844 69.6457 247.876H65.9497ZM68.2357 246.934C68.2317 246.806 68.1917 246.668 68.1157 246.52C68.0437 246.372 67.9297 246.246 67.7737 246.142C67.6177 246.038 67.4097 245.986 67.1497 245.986C66.8897 245.986 66.6757 246.036 66.5077 246.136C66.3437 246.236 66.2197 246.36 66.1357 246.508C66.0517 246.652 66.0037 246.794 65.9917 246.934H68.2357ZM75.8142 247.15L73.1082 242.08H74.9262L76.5582 245.428L78.1962 242.08H80.0022L77.3142 247.15V250H75.8142V247.15ZM82.468 250.144C81.944 250.144 81.476 250.032 81.064 249.808C80.656 249.584 80.336 249.278 80.104 248.89C79.872 248.498 79.756 248.052 79.756 247.552C79.756 247.052 79.872 246.606 80.104 246.214C80.336 245.818 80.656 245.506 81.064 245.278C81.476 245.046 81.944 244.93 82.468 244.93C82.996 244.93 83.462 245.046 83.866 245.278C84.27 245.506 84.586 245.818 84.814 246.214C85.042 246.606 85.156 247.052 85.156 247.552C85.156 248.052 85.042 248.498 84.814 248.89C84.586 249.278 84.27 249.584 83.866 249.808C83.462 250.032 82.996 250.144 82.468 250.144ZM82.468 248.878C82.72 248.878 82.938 248.822 83.122 248.71C83.31 248.594 83.454 248.436 83.554 248.236C83.658 248.032 83.71 247.802 83.71 247.546C83.71 247.29 83.658 247.06 83.554 246.856C83.454 246.652 83.31 246.492 83.122 246.376C82.938 246.256 82.72 246.196 82.468 246.196C82.216 246.196 81.996 246.256 81.808 246.376C81.624 246.492 81.48 246.652 81.376 246.856C81.272 247.06 81.22 247.29 81.22 247.546C81.22 247.802 81.272 248.032 81.376 248.236C81.48 248.436 81.624 248.594 81.808 248.71C81.996 248.822 82.216 248.878 82.468 248.878ZM87.619 247.432C87.619 247.872 87.707 248.224 87.883 248.488C88.059 248.748 88.343 248.878 88.735 248.878C89.131 248.878 89.417 248.748 89.593 248.488C89.769 248.224 89.857 247.872 89.857 247.432V245.074H91.357V247.606C91.357 248.114 91.255 248.56 91.051 248.944C90.847 249.324 90.549 249.62 90.157 249.832C89.769 250.04 89.295 250.144 88.735 250.144C88.179 250.144 87.705 250.04 87.313 249.832C86.925 249.62 86.629 249.324 86.425 248.944C86.221 248.56 86.119 248.114 86.119 247.606V245.074H87.619V247.432ZM94.0111 250H92.4871V245.074H94.0111V245.872H93.9811C94.0091 245.776 94.0851 245.654 94.2091 245.506C94.3371 245.358 94.5131 245.226 94.7371 245.11C94.9611 244.99 95.2311 244.93 95.5471 244.93C95.7751 244.93 95.9811 244.964 96.1651 245.032C96.3531 245.096 96.4871 245.16 96.5671 245.224L95.9671 246.472C95.9151 246.408 95.8171 246.342 95.6731 246.274C95.5331 246.206 95.3571 246.172 95.1451 246.172C94.8931 246.172 94.6831 246.242 94.5151 246.382C94.3471 246.518 94.2211 246.686 94.1371 246.886C94.0531 247.082 94.0111 247.266 94.0111 247.438V250ZM101.645 243.466L101.747 243.484V250H100.253V242.08H102.317L105.869 248.584L105.767 248.608V242.08H107.261V250H105.185L101.645 243.466ZM109.836 247.876C109.848 248.1 109.908 248.3 110.016 248.476C110.124 248.652 110.28 248.79 110.484 248.89C110.692 248.99 110.94 249.04 111.228 249.04C111.488 249.04 111.716 249.008 111.912 248.944C112.112 248.88 112.28 248.802 112.416 248.71C112.556 248.614 112.66 248.522 112.728 248.434L113.358 249.37C113.246 249.51 113.096 249.64 112.908 249.76C112.724 249.876 112.488 249.968 112.2 250.036C111.916 250.108 111.56 250.144 111.132 250.144C110.592 250.144 110.118 250.038 109.71 249.826C109.302 249.614 108.984 249.308 108.756 248.908C108.528 248.508 108.414 248.032 108.414 247.48C108.414 247 108.516 246.568 108.72 246.184C108.924 245.796 109.22 245.49 109.608 245.266C110 245.042 110.47 244.93 111.018 244.93C111.534 244.93 111.98 245.03 112.356 245.23C112.736 245.426 113.03 245.714 113.238 246.094C113.446 246.474 113.55 246.938 113.55 247.486C113.55 247.518 113.548 247.584 113.544 247.684C113.544 247.78 113.54 247.844 113.532 247.876H109.836ZM112.122 246.934C112.118 246.806 112.078 246.668 112.002 246.52C111.93 246.372 111.816 246.246 111.66 246.142C111.504 246.038 111.296 245.986 111.036 245.986C110.776 245.986 110.562 246.036 110.394 246.136C110.23 246.236 110.106 246.36 110.022 246.508C109.938 246.652 109.89 246.794 109.878 246.934H112.122ZM116.013 247.432C116.013 247.872 116.101 248.224 116.277 248.488C116.453 248.748 116.737 248.878 117.129 248.878C117.525 248.878 117.811 248.748 117.987 248.488C118.163 248.224 118.251 247.872 118.251 247.432V245.074H119.751V247.606C119.751 248.114 119.649 248.56 119.445 248.944C119.241 249.324 118.943 249.62 118.551 249.832C118.163 250.04 117.689 250.144 117.129 250.144C116.573 250.144 116.099 250.04 115.707 249.832C115.319 249.62 115.023 249.324 114.819 248.944C114.615 248.56 114.513 248.114 114.513 247.606V245.074H116.013V247.432ZM122.406 250H120.882V245.074H122.406V245.872H122.376C122.404 245.776 122.48 245.654 122.604 245.506C122.732 245.358 122.908 245.226 123.132 245.11C123.356 244.99 123.626 244.93 123.942 244.93C124.17 244.93 124.376 244.964 124.56 245.032C124.748 245.096 124.882 245.16 124.962 245.224L124.362 246.472C124.31 246.408 124.212 246.342 124.068 246.274C123.928 246.206 123.752 246.172 123.54 246.172C123.288 246.172 123.078 246.242 122.91 246.382C122.742 246.518 122.616 246.686 122.532 246.886C122.448 247.082 122.406 247.266 122.406 247.438V250ZM129.289 250V249.142C129.253 249.23 129.161 249.354 129.013 249.514C128.865 249.674 128.665 249.82 128.413 249.952C128.165 250.08 127.873 250.144 127.537 250.144C127.065 250.144 126.647 250.032 126.283 249.808C125.919 249.58 125.633 249.27 125.425 248.878C125.221 248.482 125.119 248.036 125.119 247.54C125.119 247.044 125.221 246.6 125.425 246.208C125.633 245.812 125.919 245.5 126.283 245.272C126.647 245.044 127.065 244.93 127.537 244.93C127.865 244.93 128.149 244.986 128.389 245.098C128.633 245.206 128.829 245.334 128.977 245.482C129.129 245.626 129.227 245.756 129.271 245.872V245.074H130.783V250H129.289ZM126.613 247.54C126.613 247.816 126.675 248.06 126.799 248.272C126.923 248.48 127.087 248.642 127.291 248.758C127.495 248.874 127.717 248.932 127.957 248.932C128.209 248.932 128.433 248.874 128.629 248.758C128.825 248.638 128.979 248.474 129.091 248.266C129.207 248.054 129.265 247.812 129.265 247.54C129.265 247.268 129.207 247.028 129.091 246.82C128.979 246.608 128.825 246.442 128.629 246.322C128.433 246.202 128.209 246.142 127.957 246.142C127.717 246.142 127.495 246.202 127.291 246.322C127.087 246.438 126.923 246.602 126.799 246.814C126.675 247.022 126.613 247.264 126.613 247.54ZM133.576 250H132.046V241.744H133.576V250Z" fill="#2260FF"/>
<path d="M34.7641 149.32V181H33.2761V154.576L33.3961 152.584L32.8441 154.576L23.2441 179.848H21.7081L12.1081 154.576L11.5801 152.584L11.7001 154.576V181H10.1881V149.32H11.7241L22.2841 177.352L22.4761 178.192L22.6681 177.352L33.2761 149.32H34.7641ZM42.1568 171.016C42.1568 172.568 42.4448 174.04 43.0208 175.432C43.5968 176.808 44.4768 177.928 45.6608 178.792C46.8448 179.656 48.3408 180.088 50.1488 180.088C51.6048 180.088 52.7968 179.84 53.7248 179.344C54.6688 178.848 55.4048 178.272 55.9328 177.616C56.4768 176.944 56.8528 176.36 57.0608 175.864L58.4768 176.824C57.8368 177.864 57.1248 178.744 56.3408 179.464C55.5568 180.168 54.6528 180.696 53.6288 181.048C52.6208 181.4 51.4368 181.576 50.0768 181.576C48.0128 181.576 46.2688 181.096 44.8448 180.136C43.4208 179.16 42.3408 177.864 41.6048 176.248C40.8848 174.616 40.5248 172.832 40.5248 170.896C40.5248 168.976 40.8928 167.248 41.6288 165.712C42.3808 164.176 43.4608 162.96 44.8688 162.064C46.2928 161.168 48.0048 160.72 50.0048 160.72C51.7808 160.72 53.3248 161.136 54.6368 161.968C55.9648 162.784 56.9968 163.904 57.7328 165.328C58.4688 166.752 58.8368 168.376 58.8368 170.2C58.8368 170.344 58.8288 170.488 58.8128 170.632C58.7968 170.76 58.7888 170.888 58.7888 171.016H42.1568ZM57.1328 169.48C57.1008 168.44 56.8608 167.36 56.4128 166.24C55.9808 165.12 55.2528 164.176 54.2288 163.408C53.2048 162.624 51.7968 162.232 50.0048 162.232C48.1168 162.232 46.6208 162.608 45.5168 163.36C44.4288 164.112 43.6368 165.048 43.1408 166.168C42.6608 167.288 42.3728 168.392 42.2768 169.48H57.1328ZM84.8749 160.72C86.3149 160.72 87.5069 161.048 88.4509 161.704C89.4109 162.344 90.1229 163.32 90.5869 164.632C91.0669 165.944 91.3069 167.608 91.3069 169.624V181H89.7709V170.248C89.7709 167.464 89.3949 165.448 88.6429 164.2C87.9069 162.936 86.6109 162.304 84.7549 162.304C83.8429 162.304 82.9149 162.568 81.9709 163.096C81.0429 163.608 80.2589 164.448 79.6189 165.616C78.9949 166.768 78.6829 168.312 78.6829 170.248V181H77.1469V170.248C77.1469 167.464 76.6589 165.448 75.6829 164.2C74.7229 162.936 73.4989 162.304 72.0109 162.304C71.0829 162.304 70.1629 162.552 69.2509 163.048C68.3389 163.544 67.5789 164.376 66.9709 165.544C66.3789 166.696 66.0829 168.264 66.0829 170.248V181H64.5469V161.296H66.0829V164.488C66.2429 163.992 66.5869 163.456 67.1149 162.88C67.6589 162.288 68.3709 161.784 69.2509 161.368C70.1469 160.936 71.1789 160.72 72.3469 160.72C73.5629 160.72 74.5709 161.024 75.3709 161.632C76.1869 162.224 76.8109 162.92 77.2429 163.72C77.6749 164.52 77.9229 165.224 77.9869 165.832C78.2269 165.032 78.6509 164.24 79.2589 163.456C79.8829 162.672 80.6669 162.024 81.6109 161.512C82.5709 160.984 83.6589 160.72 84.8749 160.72ZM106.663 181.576C104.743 181.576 103.039 181.112 101.551 180.184C100.063 179.256 98.8948 178.008 98.0468 176.44C97.1988 174.872 96.7748 173.128 96.7748 171.208C96.7748 169.288 97.1988 167.536 98.0468 165.952C98.8948 164.352 100.063 163.08 101.551 162.136C103.039 161.192 104.743 160.72 106.663 160.72C108.583 160.72 110.279 161.192 111.751 162.136C113.239 163.08 114.399 164.352 115.231 165.952C116.079 167.536 116.503 169.288 116.503 171.208C116.503 173.128 116.079 174.872 115.231 176.44C114.399 178.008 113.239 179.256 111.751 180.184C110.279 181.112 108.583 181.576 106.663 181.576ZM106.663 180.04C108.327 180.04 109.783 179.656 111.031 178.888C112.279 178.104 113.247 177.048 113.935 175.72C114.623 174.376 114.967 172.872 114.967 171.208C114.967 169.544 114.623 168.04 113.935 166.696C113.247 165.336 112.279 164.256 111.031 163.456C109.783 162.656 108.327 162.256 106.663 162.256C104.999 162.256 103.535 162.656 102.271 163.456C101.023 164.256 100.047 165.336 99.3428 166.696C98.6548 168.04 98.3108 169.544 98.3108 171.208C98.3108 172.872 98.6548 174.376 99.3428 175.72C100.047 177.048 101.023 178.104 102.271 178.888C103.535 179.656 104.999 180.04 106.663 180.04ZM123.739 181H122.251V161.296H123.739V164.992H123.619C123.667 164.56 123.947 164.008 124.459 163.336C124.987 162.664 125.699 162.064 126.595 161.536C127.507 160.992 128.555 160.72 129.739 160.72C130.667 160.72 131.451 160.832 132.091 161.056C132.731 161.28 133.163 161.504 133.387 161.728L132.643 163.096C132.419 162.92 132.027 162.736 131.467 162.544C130.907 162.352 130.227 162.256 129.427 162.256C128.307 162.256 127.315 162.656 126.451 163.456C125.603 164.256 124.939 165.208 124.459 166.312C123.979 167.416 123.739 168.424 123.739 169.336V181ZM143.421 179.32L151.173 161.296H152.853L139.773 190.984H138.117L142.533 181L134.493 161.296H136.197L143.421 179.32Z" fill="#2260FF"/>
<path d="M62.1938 188.32V220H60.7058V193.576L60.8258 191.584L60.2738 193.576L50.6738 218.848H49.1378L39.5378 193.576L39.0098 191.584L39.1298 193.576V220H37.6178V188.32H39.1538L49.7138 216.352L49.9058 217.192L50.0978 216.352L60.7058 188.32H62.1938ZM85.8105 220V215.632C85.7145 216.08 85.3385 216.704 84.6825 217.504C84.0425 218.288 83.1465 219 81.9945 219.64C80.8425 220.264 79.4745 220.576 77.8905 220.576C76.1465 220.576 74.5145 220.176 72.9945 219.376C71.4905 218.576 70.2745 217.4 69.3465 215.848C68.4185 214.296 67.9545 212.4 67.9545 210.16C67.9545 207.92 68.4185 206.024 69.3465 204.472C70.2745 202.92 71.4905 201.744 72.9945 200.944C74.5145 200.128 76.1465 199.72 77.8905 199.72C79.4745 199.72 80.8425 200.032 81.9945 200.656C83.1625 201.264 84.0745 201.96 84.7305 202.744C85.4025 203.528 85.7625 204.176 85.8105 204.688V200.296H87.2985V220H85.8105ZM69.4905 210.16C69.4905 212.016 69.8905 213.608 70.6905 214.936C71.4905 216.264 72.5225 217.28 73.7865 217.984C75.0505 218.688 76.3705 219.04 77.7465 219.04C79.2665 219.04 80.6265 218.68 81.8265 217.96C83.0265 217.24 83.9705 216.216 84.6585 214.888C85.3625 213.56 85.7145 211.984 85.7145 210.16C85.7145 208.336 85.3625 206.76 84.6585 205.432C83.9705 204.104 83.0265 203.08 81.8265 202.36C80.6265 201.624 79.2665 201.256 77.7465 201.256C76.3705 201.256 75.0505 201.616 73.7865 202.336C72.5225 203.04 71.4905 204.056 70.6905 205.384C69.8905 206.712 69.4905 208.304 69.4905 210.16ZM92.022 200.296H96.318V192.208H97.854V200.296H103.47V201.832H97.854V215.152C97.854 216.608 98.126 217.624 98.67 218.2C99.214 218.76 99.854 219.04 100.59 219.04C101.342 219.04 101.902 218.912 102.27 218.656C102.638 218.4 102.854 218.232 102.918 218.152L103.854 219.424C103.774 219.504 103.598 219.64 103.326 219.832C103.054 220.024 102.686 220.192 102.222 220.336C101.774 220.496 101.214 220.576 100.542 220.576C99.374 220.576 98.374 220.184 97.542 219.4C96.726 218.6 96.318 217.312 96.318 215.536V201.832H92.022V200.296ZM108.352 210.016C108.352 211.568 108.64 213.04 109.216 214.432C109.792 215.808 110.672 216.928 111.856 217.792C113.04 218.656 114.536 219.088 116.344 219.088C117.8 219.088 118.992 218.84 119.92 218.344C120.864 217.848 121.6 217.272 122.128 216.616C122.672 215.944 123.048 215.36 123.256 214.864L124.672 215.824C124.032 216.864 123.32 217.744 122.536 218.464C121.752 219.168 120.848 219.696 119.824 220.048C118.816 220.4 117.632 220.576 116.272 220.576C114.208 220.576 112.464 220.096 111.04 219.136C109.616 218.16 108.536 216.864 107.8 215.248C107.08 213.616 106.72 211.832 106.72 209.896C106.72 207.976 107.088 206.248 107.824 204.712C108.576 203.176 109.656 201.96 111.064 201.064C112.488 200.168 114.2 199.72 116.2 199.72C117.976 199.72 119.52 200.136 120.832 200.968C122.16 201.784 123.192 202.904 123.928 204.328C124.664 205.752 125.032 207.376 125.032 209.2C125.032 209.344 125.024 209.488 125.008 209.632C124.992 209.76 124.984 209.888 124.984 210.016H108.352ZM123.328 208.48C123.296 207.44 123.056 206.36 122.608 205.24C122.176 204.12 121.448 203.176 120.424 202.408C119.4 201.624 117.992 201.232 116.2 201.232C114.312 201.232 112.816 201.608 111.712 202.36C110.624 203.112 109.832 204.048 109.336 205.168C108.856 206.288 108.568 207.392 108.472 208.48H123.328Z" fill="#2260FF"/>
</svg>
