<svg width="146" height="251" viewBox="0 0 146 251" fill="none" xmlns="http://www.w3.org/2000/svg">
<rect x="45.6462" width="47.7692" height="138" rx="23.8846" fill="#2260FF"/>
<rect x="138" y="45.646" width="46.7077" height="138" rx="23.3538" transform="rotate(90 138 45.646)" fill="#2260FF"/>
<path d="M42.9181 44.5075C55.2097 46.2592 63.1825 55.2229 68.7944 64.8629C71.9003 70.2893 74.5195 76.0707 78.5892 80.6973C81.6097 84.1502 85.148 87.0488 89.0328 89.6178C91.6262 91.3179 94.3727 92.8293 97.8147 93.3185C95.9333 93.5923 94.1005 93.498 92.3884 93.1788C87.2918 92.1286 82.9262 89.8425 78.9413 87.0848C74.9767 84.3141 71.7416 80.5667 69.2289 76.3863C66.7729 72.3308 64.705 67.9266 62.2968 63.9109C57.4839 55.8576 51.6425 48.7319 42.9181 44.5075Z" fill="white"/>
<path d="M72.1007 64.2936C72.1007 64.2936 57.5208 51.4635 64.3092 34.244C69.9049 20.05 77.8759 17.3227 77.4767 6.03955C83.2516 11.1407 93.7348 24.4133 88.8917 40.1236C84.1538 55.494 72.1007 64.2936 72.1007 64.2936Z" fill="white"/>
<path d="M77.4767 6.03955C84.4748 14.5774 84.5776 24.9928 81.1327 35.3419C78.0663 45.0675 72.6403 53.6101 71.3816 63.78C71.2313 62.8979 70.9368 61.7371 70.9166 60.8277C70.8438 59.2473 70.9651 57.6109 71.1891 56.0371C72.2868 48.5499 75.6089 41.3907 77.8702 34.3436C81.2834 24.1618 81.6617 15.8135 77.4767 6.03955Z" fill="#2260FF"/>
<path d="M67.5926 75.83C67.5926 75.83 52.8262 52.7869 36.0797 60.1279C22.2757 66.1791 20.0559 71.3004 5.55921 67.7444C10.8083 73.2352 22.5404 85.5249 40.3063 83.6619C56.1307 82.0018 67.5926 75.83 67.5926 75.83Z" fill="white"/>
<path d="M5.33315 67.9561C12.8334 72.1433 21.6984 72.9605 29.8826 70.9978C31.3204 70.7259 33.0762 70.1172 34.483 69.7138C45.3926 65.8694 59.2082 67.3543 67.5815 75.8445C58.103 71.3193 46.8381 70.7079 36.9385 73.8898C36.4603 74.0397 35.4812 74.3265 34.9965 74.4617C34.6166 74.5684 32.7638 75.0946 32.4227 75.1801C31.2162 75.3949 29.9303 75.6637 28.7175 75.8218C27.9843 75.8589 26.2086 76.0519 25.4914 76.0536C24.9568 76.0415 23.8659 76.0209 23.3299 76.0075C16.6958 75.6861 9.69593 73.1049 5.33315 67.9561Z" fill="#2260FF"/>
<path d="M24.6376 243.466L24.7396 243.484V250H23.2456V242.08H25.3096L28.8616 248.584L28.7596 248.608V242.08H30.2536V250H28.1776L24.6376 243.466ZM33.1346 247.432C33.1346 247.872 33.2226 248.224 33.3986 248.488C33.5746 248.748 33.8586 248.878 34.2506 248.878C34.6466 248.878 34.9326 248.748 35.1086 248.488C35.2846 248.224 35.3726 247.872 35.3726 247.432V245.074H36.8726V247.606C36.8726 248.114 36.7706 248.56 36.5666 248.944C36.3626 249.324 36.0646 249.62 35.6726 249.832C35.2846 250.04 34.8106 250.144 34.2506 250.144C33.6946 250.144 33.2206 250.04 32.8286 249.832C32.4406 249.62 32.1446 249.324 31.9406 248.944C31.7366 248.56 31.6346 248.114 31.6346 247.606V245.074H33.1346V247.432ZM39.5267 250H38.0027V245.074H39.5267V245.872H39.4967C39.5247 245.776 39.6007 245.654 39.7247 245.506C39.8527 245.358 40.0287 245.226 40.2527 245.11C40.4767 244.99 40.7467 244.93 41.0627 244.93C41.2907 244.93 41.4967 244.964 41.6807 245.032C41.8687 245.096 42.0027 245.16 42.0827 245.224L41.4827 246.472C41.4307 246.408 41.3327 246.342 41.1887 246.274C41.0487 246.206 40.8727 246.172 40.6607 246.172C40.4087 246.172 40.1987 246.242 40.0307 246.382C39.8627 246.518 39.7367 246.686 39.6527 246.886C39.5687 247.082 39.5267 247.266 39.5267 247.438V250ZM42.3488 245.074H43.2368V243.052H44.7488V245.074H45.9128V246.34H44.7488V248.122C44.7488 248.358 44.7868 248.542 44.8628 248.674C44.9388 248.802 45.0588 248.866 45.2228 248.866C45.3468 248.866 45.4488 248.842 45.5288 248.794C45.6088 248.742 45.6568 248.706 45.6728 248.686L46.2128 249.778C46.1888 249.802 46.1108 249.844 45.9788 249.904C45.8508 249.964 45.6848 250.018 45.4808 250.066C45.2808 250.118 45.0548 250.144 44.8028 250.144C44.3508 250.144 43.9768 250.014 43.6808 249.754C43.3848 249.49 43.2368 249.082 43.2368 248.53V246.34H42.3488V245.074ZM48.4158 247.432C48.4158 247.872 48.5038 248.224 48.6798 248.488C48.8558 248.748 49.1398 248.878 49.5318 248.878C49.9278 248.878 50.2138 248.748 50.3898 248.488C50.5658 248.224 50.6538 247.872 50.6538 247.432V245.074H52.1538V247.606C52.1538 248.114 52.0518 248.56 51.8478 248.944C51.6438 249.324 51.3458 249.62 50.9538 249.832C50.5658 250.04 50.0918 250.144 49.5318 250.144C48.9758 250.144 48.5018 250.04 48.1098 249.832C47.7218 249.62 47.4258 249.324 47.2218 248.944C47.0178 248.56 46.9158 248.114 46.9158 247.606V245.074H48.4158V247.432ZM54.808 250H53.284V245.074H54.808V245.872H54.778C54.806 245.776 54.882 245.654 55.006 245.506C55.134 245.358 55.31 245.226 55.534 245.11C55.758 244.99 56.028 244.93 56.344 244.93C56.572 244.93 56.778 244.964 56.962 245.032C57.15 245.096 57.284 245.16 57.364 245.224L56.764 246.472C56.712 246.408 56.614 246.342 56.47 246.274C56.33 246.206 56.154 246.172 55.942 246.172C55.69 246.172 55.48 246.242 55.312 246.382C55.144 246.518 55.018 246.686 54.934 246.886C54.85 247.082 54.808 247.266 54.808 247.438V250ZM58.9497 247.876C58.9617 248.1 59.0217 248.3 59.1297 248.476C59.2377 248.652 59.3937 248.79 59.5977 248.89C59.8057 248.99 60.0537 249.04 60.3417 249.04C60.6017 249.04 60.8297 249.008 61.0257 248.944C61.2257 248.88 61.3937 248.802 61.5297 248.71C61.6697 248.614 61.7737 248.522 61.8417 248.434L62.4717 249.37C62.3597 249.51 62.2097 249.64 62.0217 249.76C61.8377 249.876 61.6017 249.968 61.3137 250.036C61.0297 250.108 60.6737 250.144 60.2457 250.144C59.7057 250.144 59.2317 250.038 58.8237 249.826C58.4157 249.614 58.0977 249.308 57.8697 248.908C57.6417 248.508 57.5277 248.032 57.5277 247.48C57.5277 247 57.6297 246.568 57.8337 246.184C58.0377 245.796 58.3337 245.49 58.7217 245.266C59.1137 245.042 59.5837 244.93 60.1317 244.93C60.6477 244.93 61.0937 245.03 61.4697 245.23C61.8497 245.426 62.1437 245.714 62.3517 246.094C62.5597 246.474 62.6637 246.938 62.6637 247.486C62.6637 247.518 62.6617 247.584 62.6577 247.684C62.6577 247.78 62.6537 247.844 62.6457 247.876H58.9497ZM61.2357 246.934C61.2317 246.806 61.1917 246.668 61.1157 246.52C61.0437 246.372 60.9297 246.246 60.7737 246.142C60.6177 246.038 60.4097 245.986 60.1497 245.986C59.8897 245.986 59.6757 246.036 59.5077 246.136C59.3437 246.236 59.2197 246.36 59.1357 246.508C59.0517 246.652 59.0037 246.794 58.9917 246.934H61.2357ZM68.8142 247.15L66.1082 242.08H67.9262L69.5582 245.428L71.1962 242.08H73.0022L70.3142 247.15V250H68.8142V247.15ZM75.468 250.144C74.944 250.144 74.476 250.032 74.064 249.808C73.656 249.584 73.336 249.278 73.104 248.89C72.872 248.498 72.756 248.052 72.756 247.552C72.756 247.052 72.872 246.606 73.104 246.214C73.336 245.818 73.656 245.506 74.064 245.278C74.476 245.046 74.944 244.93 75.468 244.93C75.996 244.93 76.462 245.046 76.866 245.278C77.27 245.506 77.586 245.818 77.814 246.214C78.042 246.606 78.156 247.052 78.156 247.552C78.156 248.052 78.042 248.498 77.814 248.89C77.586 249.278 77.27 249.584 76.866 249.808C76.462 250.032 75.996 250.144 75.468 250.144ZM75.468 248.878C75.72 248.878 75.938 248.822 76.122 248.71C76.31 248.594 76.454 248.436 76.554 248.236C76.658 248.032 76.71 247.802 76.71 247.546C76.71 247.29 76.658 247.06 76.554 246.856C76.454 246.652 76.31 246.492 76.122 246.376C75.938 246.256 75.72 246.196 75.468 246.196C75.216 246.196 74.996 246.256 74.808 246.376C74.624 246.492 74.48 246.652 74.376 246.856C74.272 247.06 74.22 247.29 74.22 247.546C74.22 247.802 74.272 248.032 74.376 248.236C74.48 248.436 74.624 248.594 74.808 248.71C74.996 248.822 75.216 248.878 75.468 248.878ZM80.619 247.432C80.619 247.872 80.707 248.224 80.883 248.488C81.059 248.748 81.343 248.878 81.735 248.878C82.131 248.878 82.417 248.748 82.593 248.488C82.769 248.224 82.857 247.872 82.857 247.432V245.074H84.357V247.606C84.357 248.114 84.255 248.56 84.051 248.944C83.847 249.324 83.549 249.62 83.157 249.832C82.769 250.04 82.295 250.144 81.735 250.144C81.179 250.144 80.705 250.04 80.313 249.832C79.925 249.62 79.629 249.324 79.425 248.944C79.221 248.56 79.119 248.114 79.119 247.606V245.074H80.619V247.432ZM87.0111 250H85.4871V245.074H87.0111V245.872H86.9811C87.0091 245.776 87.0851 245.654 87.2091 245.506C87.3371 245.358 87.5131 245.226 87.7371 245.11C87.9611 244.99 88.2311 244.93 88.5471 244.93C88.7751 244.93 88.9811 244.964 89.1651 245.032C89.3531 245.096 89.4871 245.16 89.5671 245.224L88.9671 246.472C88.9151 246.408 88.8171 246.342 88.6731 246.274C88.5331 246.206 88.3571 246.172 88.1451 246.172C87.8931 246.172 87.6831 246.242 87.5151 246.382C87.3471 246.518 87.2211 246.686 87.1371 246.886C87.0531 247.082 87.0111 247.266 87.0111 247.438V250ZM94.6455 243.466L94.7475 243.484V250H93.2535V242.08H95.3175L98.8695 248.584L98.7675 248.608V242.08H100.261V250H98.1855L94.6455 243.466ZM102.836 247.876C102.848 248.1 102.908 248.3 103.016 248.476C103.124 248.652 103.28 248.79 103.484 248.89C103.692 248.99 103.94 249.04 104.228 249.04C104.488 249.04 104.716 249.008 104.912 248.944C105.112 248.88 105.28 248.802 105.416 248.71C105.556 248.614 105.66 248.522 105.728 248.434L106.358 249.37C106.246 249.51 106.096 249.64 105.908 249.76C105.724 249.876 105.488 249.968 105.2 250.036C104.916 250.108 104.56 250.144 104.132 250.144C103.592 250.144 103.118 250.038 102.71 249.826C102.302 249.614 101.984 249.308 101.756 248.908C101.528 248.508 101.414 248.032 101.414 247.48C101.414 247 101.516 246.568 101.72 246.184C101.924 245.796 102.22 245.49 102.608 245.266C103 245.042 103.47 244.93 104.018 244.93C104.534 244.93 104.98 245.03 105.356 245.23C105.736 245.426 106.03 245.714 106.238 246.094C106.446 246.474 106.55 246.938 106.55 247.486C106.55 247.518 106.548 247.584 106.544 247.684C106.544 247.78 106.54 247.844 106.532 247.876H102.836ZM105.122 246.934C105.118 246.806 105.078 246.668 105.002 246.52C104.93 246.372 104.816 246.246 104.66 246.142C104.504 246.038 104.296 245.986 104.036 245.986C103.776 245.986 103.562 246.036 103.394 246.136C103.23 246.236 103.106 246.36 103.022 246.508C102.938 246.652 102.89 246.794 102.878 246.934H105.122ZM109.013 247.432C109.013 247.872 109.101 248.224 109.277 248.488C109.453 248.748 109.737 248.878 110.129 248.878C110.525 248.878 110.811 248.748 110.987 248.488C111.163 248.224 111.251 247.872 111.251 247.432V245.074H112.751V247.606C112.751 248.114 112.649 248.56 112.445 248.944C112.241 249.324 111.943 249.62 111.551 249.832C111.163 250.04 110.689 250.144 110.129 250.144C109.573 250.144 109.099 250.04 108.707 249.832C108.319 249.62 108.023 249.324 107.819 248.944C107.615 248.56 107.513 248.114 107.513 247.606V245.074H109.013V247.432ZM115.406 250H113.882V245.074H115.406V245.872H115.376C115.404 245.776 115.48 245.654 115.604 245.506C115.732 245.358 115.908 245.226 116.132 245.11C116.356 244.99 116.626 244.93 116.942 244.93C117.17 244.93 117.376 244.964 117.56 245.032C117.748 245.096 117.882 245.16 117.962 245.224L117.362 246.472C117.31 246.408 117.212 246.342 117.068 246.274C116.928 246.206 116.752 246.172 116.54 246.172C116.288 246.172 116.078 246.242 115.91 246.382C115.742 246.518 115.616 246.686 115.532 246.886C115.448 247.082 115.406 247.266 115.406 247.438V250ZM122.289 250V249.142C122.253 249.23 122.161 249.354 122.013 249.514C121.865 249.674 121.665 249.82 121.413 249.952C121.165 250.08 120.873 250.144 120.537 250.144C120.065 250.144 119.647 250.032 119.283 249.808C118.919 249.58 118.633 249.27 118.425 248.878C118.221 248.482 118.119 248.036 118.119 247.54C118.119 247.044 118.221 246.6 118.425 246.208C118.633 245.812 118.919 245.5 119.283 245.272C119.647 245.044 120.065 244.93 120.537 244.93C120.865 244.93 121.149 244.986 121.389 245.098C121.633 245.206 121.829 245.334 121.977 245.482C122.129 245.626 122.227 245.756 122.271 245.872V245.074H123.783V250H122.289ZM119.613 247.54C119.613 247.816 119.675 248.06 119.799 248.272C119.923 248.48 120.087 248.642 120.291 248.758C120.495 248.874 120.717 248.932 120.957 248.932C121.209 248.932 121.433 248.874 121.629 248.758C121.825 248.638 121.979 248.474 122.091 248.266C122.207 248.054 122.265 247.812 122.265 247.54C122.265 247.268 122.207 247.028 122.091 246.82C121.979 246.608 121.825 246.442 121.629 246.322C121.433 246.202 121.209 246.142 120.957 246.142C120.717 246.142 120.495 246.202 120.291 246.322C120.087 246.438 119.923 246.602 119.799 246.814C119.675 247.022 119.613 247.264 119.613 247.54ZM126.576 250H125.046V241.744H126.576V250Z" fill="#2260FF"/>
<path d="M22.937 150.32H32.441C34.041 150.32 35.521 150.656 36.881 151.328C38.257 151.984 39.361 152.968 40.193 154.28C41.041 155.576 41.465 157.184 41.465 159.104C41.465 161.024 41.049 162.632 40.217 163.928C39.385 165.224 38.385 166.2 37.217 166.856C36.049 167.512 34.961 167.84 33.953 167.84L41.945 182H40.169L32.417 167.936H24.425V182H22.937V150.32ZM24.425 166.496H31.961C34.361 166.496 36.289 165.888 37.745 164.672C39.201 163.456 39.929 161.6 39.929 159.104C39.929 156.608 39.201 154.776 37.745 153.608C36.289 152.44 34.361 151.856 31.961 151.856H24.425V166.496ZM47.774 172.016C47.774 173.568 48.062 175.04 48.638 176.432C49.214 177.808 50.094 178.928 51.278 179.792C52.462 180.656 53.958 181.088 55.766 181.088C57.222 181.088 58.414 180.84 59.342 180.344C60.286 179.848 61.022 179.272 61.55 178.616C62.094 177.944 62.47 177.36 62.678 176.864L64.094 177.824C63.454 178.864 62.742 179.744 61.958 180.464C61.174 181.168 60.27 181.696 59.246 182.048C58.238 182.4 57.054 182.576 55.694 182.576C53.63 182.576 51.886 182.096 50.462 181.136C49.038 180.16 47.958 178.864 47.222 177.248C46.502 175.616 46.142 173.832 46.142 171.896C46.142 169.976 46.51 168.248 47.246 166.712C47.998 165.176 49.078 163.96 50.486 163.064C51.91 162.168 53.622 161.72 55.622 161.72C57.398 161.72 58.942 162.136 60.254 162.968C61.582 163.784 62.614 164.904 63.35 166.328C64.086 167.752 64.454 169.376 64.454 171.2C64.454 171.344 64.446 171.488 64.43 171.632C64.414 171.76 64.406 171.888 64.406 172.016H47.774ZM62.75 170.48C62.718 169.44 62.478 168.36 62.03 167.24C61.598 166.12 60.87 165.176 59.846 164.408C58.822 163.624 57.414 163.232 55.622 163.232C53.734 163.232 52.238 163.608 51.134 164.36C50.046 165.112 49.254 166.048 48.758 167.168C48.278 168.288 47.99 169.392 47.894 170.48H62.75ZM77.8921 181.04C79.4281 181.04 80.6521 180.808 81.5641 180.344C82.4761 179.864 83.0281 179.544 83.2201 179.384L84.1561 180.728C84.0601 180.808 83.7241 181 83.1481 181.304C82.5721 181.608 81.8121 181.896 80.8681 182.168C79.9401 182.44 78.8841 182.576 77.7001 182.576C76.2921 182.576 74.8761 182.2 73.4521 181.448C72.0441 180.68 70.8601 179.52 69.9001 177.968C68.9561 176.416 68.4841 174.472 68.4841 172.136C68.4841 169.784 68.9561 167.84 69.9001 166.304C70.8601 164.768 72.0441 163.624 73.4521 162.872C74.8761 162.104 76.2921 161.72 77.7001 161.72C78.8841 161.72 79.9161 161.872 80.7961 162.176C81.6921 162.48 82.4121 162.808 82.9561 163.16C83.5161 163.512 83.8601 163.76 83.9881 163.904L83.0761 165.248C82.9321 165.104 82.6441 164.872 82.2121 164.552C81.7961 164.232 81.2281 163.936 80.5081 163.664C79.7881 163.392 78.9161 163.256 77.8921 163.256C76.6601 163.256 75.4361 163.6 74.2201 164.288C73.0041 164.96 71.9961 165.96 71.1961 167.288C70.4121 168.6 70.0201 170.216 70.0201 172.136C70.0201 174.056 70.4121 175.68 71.1961 177.008C71.9961 178.336 73.0041 179.344 74.2201 180.032C75.4361 180.704 76.6601 181.04 77.8921 181.04ZM105.529 182V177.632C105.433 178.08 105.057 178.704 104.401 179.504C103.761 180.288 102.865 181 101.713 181.64C100.561 182.264 99.1933 182.576 97.6093 182.576C95.8653 182.576 94.2333 182.176 92.7133 181.376C91.2093 180.576 89.9933 179.4 89.0653 177.848C88.1373 176.296 87.6733 174.4 87.6733 172.16C87.6733 169.92 88.1373 168.024 89.0653 166.472C89.9933 164.92 91.2093 163.744 92.7133 162.944C94.2333 162.128 95.8653 161.72 97.6093 161.72C99.1933 161.72 100.561 162.032 101.713 162.656C102.881 163.264 103.793 163.96 104.449 164.744C105.121 165.528 105.481 166.176 105.529 166.688V162.296H107.017V182H105.529ZM89.2093 172.16C89.2093 174.016 89.6093 175.608 90.4093 176.936C91.2093 178.264 92.2413 179.28 93.5053 179.984C94.7693 180.688 96.0893 181.04 97.4653 181.04C98.9853 181.04 100.345 180.68 101.545 179.96C102.745 179.24 103.689 178.216 104.377 176.888C105.081 175.56 105.433 173.984 105.433 172.16C105.433 170.336 105.081 168.76 104.377 167.432C103.689 166.104 102.745 165.08 101.545 164.36C100.345 163.624 98.9853 163.256 97.4653 163.256C96.0893 163.256 94.7693 163.616 93.5053 164.336C92.2413 165.04 91.2093 166.056 90.4093 167.384C89.6093 168.712 89.2093 170.304 89.2093 172.16ZM115.269 182H113.685V148.976H115.269V182ZM124.222 182H122.638V148.976H124.222V182Z" fill="#2260FF"/>
<path d="M56.4738 188.32H58.3218L69.3618 220H67.7538L64.6578 211.312H50.1378L46.9938 220H45.3618L56.4738 188.32ZM50.5458 209.776H64.2738L57.4338 190.312H57.3618L50.5458 209.776ZM73.8963 220V200.296H75.4323V220H73.8963ZM74.6883 191.272C74.2563 191.272 73.8883 191.12 73.5843 190.816C73.2803 190.512 73.1283 190.144 73.1283 189.712C73.1283 189.264 73.2803 188.888 73.5843 188.584C73.9043 188.28 74.2723 188.128 74.6883 188.128C74.9763 188.128 75.2403 188.2 75.4803 188.344C75.7363 188.488 75.9363 188.68 76.0803 188.92C76.2403 189.144 76.3203 189.408 76.3203 189.712C76.3203 190.144 76.1603 190.512 75.8403 190.816C75.5203 191.12 75.1363 191.272 74.6883 191.272ZM91.8794 220.576C90.1354 220.576 88.5354 220.176 87.0794 219.376C85.6394 218.576 84.4874 217.4 83.6234 215.848C82.7594 214.296 82.3274 212.4 82.3274 210.16C82.3274 207.92 82.7594 206.024 83.6234 204.472C84.4874 202.92 85.6394 201.744 87.0794 200.944C88.5354 200.128 90.1354 199.72 91.8794 199.72C93.4794 199.72 94.8874 200.024 96.1034 200.632C97.3194 201.224 98.2794 201.912 98.9834 202.696C99.6874 203.48 100.063 204.144 100.111 204.688V186.976H101.719V220H100.183V215.632C100.135 216.112 99.7594 216.744 99.0554 217.528C98.3514 218.312 97.3834 219.016 96.1514 219.64C94.9194 220.264 93.4954 220.576 91.8794 220.576ZM91.7354 219.04C93.2554 219.04 94.6474 218.68 95.9114 217.96C97.1914 217.24 98.2074 216.216 98.9594 214.888C99.7274 213.56 100.111 211.984 100.111 210.16C100.111 208.336 99.7274 206.76 98.9594 205.432C98.2074 204.104 97.1914 203.08 95.9114 202.36C94.6474 201.624 93.2554 201.256 91.7354 201.256C90.3754 201.256 89.0954 201.616 87.8954 202.336C86.7114 203.04 85.7514 204.056 85.0154 205.384C84.2794 206.712 83.9114 208.304 83.9114 210.16C83.9114 212.016 84.2794 213.608 85.0154 214.936C85.7514 216.264 86.7114 217.28 87.8954 217.984C89.0954 218.688 90.3754 219.04 91.7354 219.04Z" fill="#2260FF"/>
</svg>
